# xmcd
#
# Track frame offsets: 
#        150
#        28101
#        60863
#        90154
#        121725
#        155800
#        176460
#        208447
#        221380
#        253044
#        286633
#
# Disc length: 4144 seconds
#
# Revision: 2
# Processed by: cddbd v1.5.2PL0 Copyright (c) Steve Scherf et al.
# Submitted via: ExactAudioCopy v1.0b2
#
DISCID=8f102e0b
DTITLE=Oles, Oles, Friedlander, Rabinowitz, Somer - Chamber Quintet
DYEAR=2005
DGENRE=Jazz
TTITLE0=Abyss
TTITLE1=Galileo
TTITLE2=Eternity
TTITLE3=Enigma
TTITLE4=Rien que nous deux...
TTITLE5=Reflection
TTITLE6=Horror vacui
TTITLE7=Phoenix
TTITLE8=Desert walk
TTITLE9=Nostalgia
TTITLE10=Source
EXTD=YEAR: 2005
EXTT0=
EXTT1=
EXTT2=
EXTT3=
EXTT4=
EXTT5=
EXTT6=
EXTT7=
EXTT8=
EXTT9=
EXTT10=
PLAYORDER=
